<svg width="43" height="13" viewBox="0 0 43 13" fill="none" xmlns="http://www.w3.org/2000/svg">
<path d="M2.712 5.312H8.104V7.328H2.712V5.312ZM2.904 9.92H9V12H0.328V0.799999H8.792V2.88H2.904V9.92ZM11.3864 12V3.392H13.7704V5.824L13.4344 5.12C13.6904 4.512 14.101 4.05333 14.6664 3.744C15.2317 3.424 15.9197 3.264 16.7304 3.264V5.568C16.6237 5.55733 16.5277 5.552 16.4424 5.552C16.357 5.54133 16.2664 5.536 16.1704 5.536C15.4877 5.536 14.933 5.73333 14.5064 6.128C14.0904 6.512 13.8824 7.11467 13.8824 7.936V12H11.3864ZM18.7301 12V3.392H21.1141V5.824L20.7781 5.12C21.0341 4.512 21.4448 4.05333 22.0101 3.744C22.5755 3.424 23.2635 3.264 24.0741 3.264V5.568C23.9675 5.55733 23.8715 5.552 23.7861 5.552C23.7008 5.54133 23.6101 5.536 23.5141 5.536C22.8315 5.536 22.2768 5.73333 21.8501 6.128C21.4341 6.512 21.2261 7.11467 21.2261 7.936V12H18.7301ZM30.0918 12.128C29.1744 12.128 28.3584 11.936 27.6438 11.552C26.9398 11.168 26.3798 10.6453 25.9638 9.984C25.5584 9.312 25.3558 8.54933 25.3558 7.696C25.3558 6.832 25.5584 6.06933 25.9638 5.408C26.3798 4.736 26.9398 4.21333 27.6438 3.84C28.3584 3.456 29.1744 3.264 30.0918 3.264C30.9984 3.264 31.8091 3.456 32.5238 3.84C33.2384 4.21333 33.7984 4.73067 34.2038 5.392C34.6091 6.05333 34.8118 6.82133 34.8118 7.696C34.8118 8.54933 34.6091 9.312 34.2038 9.984C33.7984 10.6453 33.2384 11.168 32.5238 11.552C31.8091 11.936 30.9984 12.128 30.0918 12.128ZM30.0918 10.08C30.5078 10.08 30.8811 9.984 31.2118 9.792C31.5424 9.6 31.8038 9.328 31.9958 8.976C32.1878 8.61333 32.2838 8.18667 32.2838 7.696C32.2838 7.19467 32.1878 6.768 31.9958 6.416C31.8038 6.064 31.5424 5.792 31.2118 5.6C30.8811 5.408 30.5078 5.312 30.0918 5.312C29.6758 5.312 29.3024 5.408 28.9718 5.6C28.6411 5.792 28.3744 6.064 28.1718 6.416C27.9798 6.768 27.8838 7.19467 27.8838 7.696C27.8838 8.18667 27.9798 8.61333 28.1718 8.976C28.3744 9.328 28.6411 9.6 28.9718 9.792C29.3024 9.984 29.6758 10.08 30.0918 10.08ZM36.9801 12V3.392H39.3641V5.824L39.0281 5.12C39.2841 4.512 39.6948 4.05333 40.2601 3.744C40.8255 3.424 41.5135 3.264 42.3241 3.264V5.568C42.2175 5.55733 42.1215 5.552 42.0361 5.552C41.9508 5.54133 41.8601 5.536 41.7641 5.536C41.0815 5.536 40.5268 5.73333 40.1001 6.128C39.6841 6.512 39.4761 7.11467 39.4761 7.936V12H36.9801Z" fill="white"/>
</svg>
