<svg width="27" height="13" viewBox="0 0 27 13" fill="none" xmlns="http://www.w3.org/2000/svg">
<path d="M6.768 12.192C5.88267 12.192 5.06133 12.048 4.304 11.76C3.55733 11.472 2.90667 11.0667 2.352 10.544C1.808 10.0213 1.38133 9.408 1.072 8.704C0.773333 8 0.624 7.232 0.624 6.4C0.624 5.568 0.773333 4.8 1.072 4.096C1.38133 3.392 1.81333 2.77867 2.368 2.256C2.92267 1.73333 3.57333 1.328 4.32 1.04C5.06667 0.752 5.87733 0.608 6.752 0.608C7.63733 0.608 8.448 0.752 9.184 1.04C9.93067 1.328 10.576 1.73333 11.12 2.256C11.6747 2.77867 12.1067 3.392 12.416 4.096C12.7253 4.78933 12.88 5.55733 12.88 6.4C12.88 7.232 12.7253 8.00533 12.416 8.72C12.1067 9.424 11.6747 10.0373 11.12 10.56C10.576 11.072 9.93067 11.472 9.184 11.76C8.448 12.048 7.64267 12.192 6.768 12.192ZM6.752 9.984C7.25333 9.984 7.712 9.89867 8.128 9.728C8.55467 9.55733 8.928 9.312 9.248 8.992C9.568 8.672 9.81333 8.29333 9.984 7.856C10.1653 7.41867 10.256 6.93333 10.256 6.4C10.256 5.86667 10.1653 5.38133 9.984 4.944C9.81333 4.50667 9.568 4.128 9.248 3.808C8.93867 3.488 8.57067 3.24267 8.144 3.072C7.71733 2.90133 7.25333 2.816 6.752 2.816C6.25067 2.816 5.78667 2.90133 5.36 3.072C4.944 3.24267 4.576 3.488 4.256 3.808C3.936 4.128 3.68533 4.50667 3.504 4.944C3.33333 5.38133 3.248 5.86667 3.248 6.4C3.248 6.92267 3.33333 7.408 3.504 7.856C3.68533 8.29333 3.93067 8.672 4.24 8.992C4.56 9.312 4.93333 9.55733 5.36 9.728C5.78667 9.89867 6.25067 9.984 6.752 9.984ZM17.648 9.44L17.504 6.448L22.864 0.799999H25.744L20.912 6L19.472 7.536L17.648 9.44ZM15.328 12V0.799999H17.904V12H15.328ZM22.992 12L19.008 7.12L20.704 5.28L26.016 12H22.992Z" fill="white"/>
</svg>
